# xmcd
#
# Track frame offsets:
#	150
#	14353
#	23749
#	34741
#	59929
#	67312
#	79711
#	88864
#	106181
#	115898
#	124876
#	138563
#
# Disc length: 2050 seconds
#
# Revision: 0
# Processed by: cddbd v1.5.1PL2 Copyright (c) Steve Scherf et al.
# Submitted via: EasyCDDAExtractor 8.2.3.1
#
DISCID=ac08000c
DTITLE=Jacó e Jacózinho - Amado e Antônio
DYEAR=1982
DGENRE=Sertanejo
TTITLE0=O pintinho
TTITLE1=O perigoso
TTITLE2=Mulher do seu mané
TTITLE3=Desafio
TTITLE4=Beijo da Tudica
TTITLE5=O serrote
TTITLE6=A mandioca
TTITLE7=Os 10 mandamentos do pingão
TTITLE8=O corinthiano
TTITLE9=Cupim
TTITLE10=Bem pra lá do mais pra cá
TTITLE11=O acanhado
EXTD=
EXTT0=
EXTT1=
EXTT2=
EXTT3=
EXTT4=
EXTT5=
EXTT6=
EXTT7=
EXTT8=
EXTT9=
EXTT10=
EXTT11=
PLAYORDER=
